<?xml version="1.0" encoding="utf-8"?>
<!DOCTYPE svg PUBLIC "-//W3C//DTD SVG 1.1//EN" "http://www.w3.org/Graphics/SVG/1.1/DTD/svg11.dtd">
<svg width="600" height="600" xmlns:xlink="http://www.w3.org/1999/xlink" xmlns:xml="http://www.w3.org/XML/1998/namespace" version="1.1" xmlns="http://www.w3.org/2000/svg">
  <g transform="translate(204.5, 204.5)">
    <circle cx="-200" cy="-200" r="4" style="fill:none;stroke:black;" />
    <circle cx="-200" cy="-100" r="4" style="fill:none;stroke:black;" />
    <circle cx="-200" cy="0" r="4" style="fill:none;stroke:black;" />
    <circle cx="-200" cy="100" r="4" style="fill:none;stroke:black;" />
    <circle cx="-200" cy="200" r="4" style="fill:none;stroke:black;" />
    <circle cx="-100" cy="-200" r="4" style="fill:none;stroke:black;" />
    <circle cx="-100" cy="-100" r="4" style="fill:none;stroke:black;" />
    <circle cx="-100" cy="0" r="4" style="fill:none;stroke:black;" />
    <circle cx="-100" cy="100" r="4" style="fill:none;stroke:black;" />
    <circle cx="-100" cy="200" r="4" style="fill:none;stroke:black;" />
    <circle cx="0" cy="-200" r="4" style="fill:none;stroke:black;" />
    <circle cx="0" cy="-100" r="4" style="fill:none;stroke:black;" />
    <circle cx="0" cy="0" r="4" style="fill:none;stroke:black;" />
    <circle cx="0" cy="100" r="4" style="fill:none;stroke:black;" />
    <circle cx="0" cy="200" r="4" style="fill:none;stroke:black;" />
    <circle cx="100" cy="-200" r="4" style="fill:none;stroke:black;" />
    <circle cx="100" cy="-100" r="4" style="fill:none;stroke:black;" />
    <circle cx="100" cy="0" r="4" style="fill:none;stroke:black;" />
    <circle cx="100" cy="100" r="4" style="fill:none;stroke:black;" />
    <circle cx="100" cy="200" r="4" style="fill:none;stroke:black;" />
    <circle cx="200" cy="-200" r="4" style="fill:none;stroke:black;" />
    <circle cx="200" cy="-100" r="4" style="fill:none;stroke:black;" />
    <circle cx="200" cy="0" r="4" style="fill:none;stroke:black;" />
    <circle cx="200" cy="100" r="4" style="fill:none;stroke:black;" />
    <circle cx="200" cy="200" r="4" style="fill:none;stroke:black;" />
  </g>
</svg>